<svg width="0" height="0" class="hidden">
  <symbol version="1.1" id="barometer" xmlns="http://www.w3.org/2000/svg" xmlns:xlink="http://www.w3.org/1999/xlink" x="0px" y="0px" xml:space="preserve" viewBox="0 0 470 470">
    <g>
      <path d="M401.17,68.83C356.785,24.444,297.771,0,235,0S113.215,24.444,68.83,68.83C24.444,113.216,0,172.229,0,235
		s24.444,121.784,68.83,166.17C113.215,445.556,172.229,470,235,470s121.785-24.444,166.17-68.83
		C445.556,356.784,470,297.771,470,235S445.556,113.216,401.17,68.83z M235,455c-121.309,0-220-98.691-220-220S113.691,15,235,15
		s220,98.691,220,220S356.309,455,235,455z"></path>
      <path d="M235,30C121.962,30,30,121.963,30,235s91.962,205,205,205s205-91.963,205-205S348.038,30,235,30z M235,425
		c-104.766,0-190-85.233-190-190S130.234,45,235,45s190,85.233,190,190S339.766,425,235,425z"></path>
      <path d="M369.968,157.838c-0.092-0.198-0.19-0.395-0.301-0.588c-0.136-0.235-0.283-0.458-0.439-0.673
		c-13.509-23.033-32.772-42.296-55.805-55.805c-0.214-0.156-0.438-0.304-0.673-0.439c-0.193-0.111-0.389-0.208-0.587-0.301
		C289.41,86.974,263.062,79.5,235,79.5c-28.063,0-54.412,7.474-77.165,20.534c-0.197,0.092-0.393,0.189-0.585,0.299
		c-0.235,0.136-0.458,0.283-0.673,0.439c-23.033,13.509-42.296,32.772-55.805,55.805c-0.156,0.214-0.304,0.438-0.439,0.673
		c-0.111,0.193-0.209,0.39-0.301,0.588C86.974,180.59,79.5,206.938,79.5,235c0,27.312,7.215,54.195,20.873,77.762
		c0.385,0.66,3.967,6.332,11.159,2.183l20.697-11.949c3.587-2.071,4.816-6.658,2.745-10.245c-2.071-3.588-6.658-4.815-10.245-2.745
		c0,0-8.613,4.973-14.966,8.641c-8.874-17.413-14.004-36.571-15.052-56.146H112c4.142,0,7.5-3.357,7.5-7.5s-3.358-7.5-7.5-7.5
		H94.701c1.063-20.119,6.379-39.128,15.062-56.146l14.966,8.641c1.181,0.682,2.471,1.006,3.743,1.006
		c2.592,0,5.113-1.345,6.502-3.751c2.071-3.587,0.842-8.174-2.745-10.245l-14.94-8.625c10.696-16.377,24.713-30.394,41.09-41.09
		l8.625,14.939c1.389,2.406,3.91,3.751,6.502,3.751c1.272,0,2.562-0.324,3.743-1.006c3.587-2.071,4.816-6.658,2.745-10.245
		l-8.641-14.966c17.017-8.683,36.027-13.999,56.145-15.062V112c0,4.143,3.358,7.5,7.5,7.5s7.5-3.357,7.5-7.5V94.701
		c20.119,1.063,39.128,6.379,56.145,15.062l-8.641,14.966c-2.071,3.587-0.842,8.174,2.745,10.245
		c1.181,0.682,2.471,1.006,3.743,1.006c2.592,0,5.113-1.345,6.502-3.751l8.625-14.939c16.377,10.697,30.394,24.713,41.09,41.09
		l-14.94,8.625c-3.587,2.071-4.816,6.658-2.745,10.245c1.389,2.406,3.91,3.751,6.502,3.751c1.272,0,2.562-0.324,3.743-1.006
		l14.966-8.641c8.683,17.017,13.998,36.027,15.062,56.146H358c-4.142,0-7.5,3.357-7.5,7.5s3.358,7.5,7.5,7.5h17.29
		c-1.048,19.561-6.172,38.723-15.034,56.156l-14.984-8.651c-3.588-2.071-8.174-0.843-10.245,2.745
		c-2.071,3.587-0.842,8.174,2.745,10.245l21.651,12.5c1.181,0.682,2.47,1.006,3.743,1.006c2.59,0,5.11-1.344,6.5-3.748
		c13.63-23.58,20.835-50.467,20.835-77.753C390.5,206.938,383.026,180.59,369.968,157.838z"></path>
      <path d="M260.554,189.15c-3.618-2.01-8.179-0.71-10.192,2.904l-11.582,20.769c-1.23-0.209-2.491-0.324-3.78-0.324
		c-12.407,0-22.5,10.094-22.5,22.5c0,1.404,0.136,2.776,0.383,4.109l-62.173,35.896c-3.587,2.071-4.816,6.658-2.745,10.245
		c1.389,2.406,3.91,3.751,6.502,3.751c1.272,0,2.562-0.324,3.743-1.006l62.184-35.902c3.934,3.367,9.035,5.407,14.607,5.407
		c9.66,0,17.915-6.12,21.098-14.685l23.775,0.354c0.038,0.001,0.076,0.001,0.114,0.001c4.085,0,7.429-3.277,7.497-7.376
		c0.157-9.47-2.27-18.821-7.018-27.045C275.719,200.527,268.833,193.75,260.554,189.15z M235,242.5c-4.136,0-7.5-3.364-7.5-7.5
		s3.364-7.5,7.5-7.5c1.302,0,2.528,0.335,3.596,0.921c0.019,0.011,0.035,0.023,0.054,0.034c2.297,1.29,3.85,3.738,3.85,6.545
		c0,0.032-0.004,0.064-0.005,0.096C242.432,239.197,239.097,242.5,235,242.5z M256.317,227.817
		c-0.966-2.858-2.489-5.461-4.443-7.677l7.571-13.576c3.188,2.737,5.908,6.009,8.031,9.686c2.123,3.678,3.596,7.669,4.373,11.799
		L256.317,227.817z"></path>
      <path d="M261.147,375.5h-52.294c-4.142,0-7.5,3.357-7.5,7.5s3.358,7.5,7.5,7.5h52.294c4.142,0,7.5-3.357,7.5-7.5
		S265.289,375.5,261.147,375.5z"></path>
      <path d="M251.147,360.5c4.142,0,7.5-3.357,7.5-7.5s-3.358-7.5-7.5-7.5h-32.294c-4.142,0-7.5,3.357-7.5,7.5s3.358,7.5,7.5,7.5
		H251.147z"></path>
    </g>
    <g></g>
    <g></g>
    <g></g>
    <g></g>
    <g></g>
    <g></g>
    <g></g>
    <g></g>
    <g></g>
    <g></g>
    <g></g>
    <g></g>
    <g></g>
    <g></g>
    <g></g>
  </symbol>
  <symbol version="1.1" id="humidity" xmlns="http://www.w3.org/2000/svg" xmlns:xlink="http://www.w3.org/1999/xlink" x="0px" y="0px" xml:space="preserve" viewBox="0 0 328.611 328.611">
    <g>
      <path d="M209.306,50.798c-2.452-3.337-7.147-4.055-10.485-1.602c-3.338,2.453-4.055,7.147-1.603,10.485
		c54.576,74.266,66.032,123.541,66.032,151.8c0,27.691-8.272,52.794-23.293,70.685c-17.519,20.866-42.972,31.446-75.651,31.446
		c-73.031,0-98.944-55.018-98.944-102.131c0-52.227,28.103-103.234,51.679-136.829c25.858-36.847,52.11-61.415,52.37-61.657
		c3.035-2.819,3.209-7.565,0.39-10.6c-2.819-3.034-7.565-3.209-10.599-0.39c-1.11,1.031-27.497,25.698-54.254,63.765
		c-24.901,35.428-54.586,89.465-54.586,145.71c0,31.062,9.673,59.599,27.236,80.353c20.361,24.061,50.345,36.779,86.708,36.779
		c36.794,0,66.926-12.726,87.139-36.801c17.286-20.588,26.806-49.117,26.806-80.33C278.25,156.216,240.758,93.597,209.306,50.798z"></path>
      <path d="M198.43,148.146l-95.162,95.162c-2.929,2.929-2.929,7.678,0,10.606c1.465,1.464,3.385,2.197,5.304,2.197
		s3.839-0.732,5.304-2.197l95.162-95.162c2.929-2.929,2.929-7.678,0-10.606C206.107,145.217,201.359,145.217,198.43,148.146z"></path>
      <path d="M191.965,207.899c-13.292,0-24.106,10.814-24.106,24.106s10.814,24.106,24.106,24.106s24.106-10.814,24.106-24.106
		S205.257,207.899,191.965,207.899z M191.965,241.111c-5.021,0-9.106-4.085-9.106-9.106s4.085-9.106,9.106-9.106
		s9.106,4.085,9.106,9.106S196.986,241.111,191.965,241.111z"></path>
      <path d="M125.178,194.162c13.292,0,24.106-10.814,24.106-24.106s-10.814-24.106-24.106-24.106s-24.106,10.814-24.106,24.106
		S111.886,194.162,125.178,194.162z M125.178,160.949c5.021,0,9.106,4.085,9.106,9.106s-4.085,9.106-9.106,9.106
		c-5.021,0-9.106-4.085-9.106-9.106S120.156,160.949,125.178,160.949z"></path>
    </g>
    <g></g>
    <g></g>
    <g></g>
    <g></g>
    <g></g>
    <g></g>
    <g></g>
    <g></g>
    <g></g>
    <g></g>
    <g></g>
    <g></g>
    <g></g>
    <g></g>
    <g></g>
  </symbol>
  <symbol version="1.1" id="location" xmlns="http://www.w3.org/2000/svg" xmlns:xlink="http://www.w3.org/1999/xlink" x="0px" y="0px" xml:space="preserve" viewBox="0 0 315 315">
    <g>
      <g>
        <g>
          <path d="M157.5,0C93.319,0,41.103,52.215,41.103,116.397c0,62.138,106.113,190.466,110.63,195.898
				c1.425,1.713,3.538,2.705,5.767,2.705c2.228,0,4.342-0.991,5.767-2.705c4.518-5.433,110.63-133.76,110.63-195.898
				C273.897,52.215,221.682,0,157.5,0z M157.5,295.598c-9.409-11.749-28.958-36.781-48.303-65.397
				c-34.734-51.379-53.094-90.732-53.094-113.804C56.103,60.486,101.59,15,157.5,15c55.91,0,101.397,45.486,101.397,101.397
				c0,23.071-18.359,62.424-53.094,113.804C186.457,258.817,166.909,283.849,157.5,295.598z"></path>
          <path d="M195.657,213.956c-3.432-2.319-8.095-1.415-10.413,2.017c-10.121,14.982-21.459,30.684-33.699,46.67
				c-2.518,3.289-1.894,7.996,1.395,10.514c1.36,1.042,2.963,1.546,4.554,1.546c2.254,0,4.484-1.013,5.96-2.941
				c12.42-16.22,23.933-32.165,34.219-47.392C199.992,220.938,199.09,216.275,195.657,213.956z"></path>
          <path d="M157.5,57.5C123.589,57.5,96,85.089,96,119s27.589,61.5,61.5,61.5S219,152.911,219,119S191.411,57.5,157.5,57.5z
				 M157.5,165.5c-25.64,0-46.5-20.86-46.5-46.5s20.86-46.5,46.5-46.5c25.641,0,46.5,20.86,46.5,46.5S183.141,165.5,157.5,165.5z"></path>
        </g>
      </g>
    </g>
    <g></g>
    <g></g>
    <g></g>
    <g></g>
    <g></g>
    <g></g>
    <g></g>
    <g></g>
    <g></g>
    <g></g>
    <g></g>
    <g></g>
    <g></g>
    <g></g>
    <g></g>
  </symbol>
  <symbol version="1.1" id="temperature" xmlns="http://www.w3.org/2000/svg" xmlns:xlink="http://www.w3.org/1999/xlink" x="0px" y="0px" xml:space="preserve" viewBox="0 0 496.254 496.254">
    <circle cx="248.127" cy="392.539" r="103.715"></circle>
    <path d="M351.842,392.539c0,57.273-46.442,103.708-103.723,103.708"></path>
    <path d="M307.196,337.4c0,32.618-26.451,59.077-59.077,59.077l0,0c-32.626,0-59.077-26.459-59.077-59.077
	V59.077C189.042,26.443,215.493,0,248.119,0l0,0c32.626,0,59.077,26.443,59.077,59.077V337.4z"></path>
    <path d="M189.042,201.507V59.077C189.042,26.443,215.493,0,248.119,0l0,0"></path>
    <circle cx="248.119" cy="392.539" r="29.538"></circle>
    <path d="M277.658,392.539c0,16.305-13.225,29.538-29.538,29.538s-29.538-13.233-29.538-29.538"></path>
    <path d="M256.981,387.6c0,4.892-3.97,8.862-8.862,8.862l0,0c-4.892,0-8.862-3.97-8.862-8.862V58.738
	c0-4.892,3.97-8.862,8.862-8.862l0,0c4.892,0,8.862,3.97,8.862,8.862V387.6z"></path>
    <g>
      <path d="M295.381,108.292c0,1.095-0.89,1.969-1.969,1.969h-18.385c-1.095,0-1.969-0.874-1.969-1.969l0,0
		c0-1.095,0.874-1.969,1.969-1.969h18.385C294.491,106.323,295.381,107.197,295.381,108.292L295.381,108.292z"></path>
      <path d="M295.381,123.557c0,1.095-0.89,1.969-1.969,1.969h-2.631c-1.095,0-1.969-0.874-1.969-1.969l0,0
		c0-1.095,0.874-1.969,1.969-1.969h2.631C294.491,121.588,295.381,122.463,295.381,123.557L295.381,123.557z"></path>
      <path d="M295.381,139.8c0,1.095-0.89,1.969-1.969,1.969h-18.385c-1.095,0-1.969-0.874-1.969-1.969l0,0
		c0-1.095,0.874-1.969,1.969-1.969h18.385C294.491,137.83,295.381,138.705,295.381,139.8L295.381,139.8z"></path>
      <path d="M295.381,155.065c0,1.095-0.89,1.969-1.969,1.969h-2.631c-1.095,0-1.969-0.874-1.969-1.969l0,0
		c0-1.095,0.874-1.969,1.969-1.969h2.631C294.491,153.096,295.381,153.97,295.381,155.065L295.381,155.065z"></path>
      <path d="M295.381,171.307c0,1.095-0.89,1.969-1.969,1.969h-18.385c-1.095,0-1.969-0.874-1.969-1.969l0,0
		c0-1.095,0.874-1.969,1.969-1.969h18.385C294.491,169.338,295.381,170.212,295.381,171.307L295.381,171.307z"></path>
      <path d="M295.381,186.573c0,1.095-0.89,1.969-1.969,1.969h-2.631c-1.095,0-1.969-0.874-1.969-1.969l0,0
		c0-1.095,0.874-1.969,1.969-1.969h2.631C294.491,184.604,295.381,185.478,295.381,186.573L295.381,186.573z"></path>
      <path d="M295.381,202.815c0,1.095-0.89,1.969-1.969,1.969h-18.385c-1.095,0-1.969-0.874-1.969-1.969l0,0
		c0-1.095,0.874-1.969,1.969-1.969h18.385C294.491,200.846,295.381,201.72,295.381,202.815L295.381,202.815z"></path>
      <path d="M295.381,218.081c0,1.095-0.89,1.969-1.969,1.969h-2.631c-1.095,0-1.969-0.874-1.969-1.969l0,0
		c0-1.095,0.874-1.969,1.969-1.969h2.631C294.491,216.111,295.381,216.986,295.381,218.081L295.381,218.081z"></path>
      <path d="M295.381,234.323c0,1.095-0.89,1.969-1.969,1.969h-18.385c-1.095,0-1.969-0.874-1.969-1.969l0,0
		c0-1.095,0.874-1.969,1.969-1.969h18.385C294.491,232.353,295.381,233.228,295.381,234.323L295.381,234.323z"></path>
      <path d="M295.381,249.588c0,1.095-0.89,1.969-1.969,1.969h-2.631c-1.095,0-1.969-0.874-1.969-1.969l0,0
		c0-1.095,0.874-1.969,1.969-1.969h2.631C294.491,247.619,295.381,248.493,295.381,249.588L295.381,249.588z"></path>
      <path d="M295.381,265.83c0,1.095-0.89,1.969-1.969,1.969h-18.385c-1.095,0-1.969-0.874-1.969-1.969l0,0
		c0-1.095,0.874-1.969,1.969-1.969h18.385C294.491,263.861,295.381,264.736,295.381,265.83L295.381,265.83z"></path>
      <path d="M295.381,281.096c0,1.095-0.89,1.969-1.969,1.969h-2.631c-1.095,0-1.969-0.874-1.969-1.969l0,0
		c0-1.095,0.874-1.969,1.969-1.969h2.631C294.491,279.127,295.381,280.001,295.381,281.096L295.381,281.096z"></path>
    </g>
    <g></g>
    <g></g>
    <g></g>
    <g></g>
    <g></g>
    <g></g>
    <g></g>
    <g></g>
    <g></g>
    <g></g>
    <g></g>
    <g></g>
    <g></g>
    <g></g>
    <g></g>
  </symbol>
  <symbol version="1.1" id="uv-index" xmlns="http://www.w3.org/2000/svg" xmlns:xlink="http://www.w3.org/1999/xlink" x="0px" y="0px" xml:space="preserve" viewBox="0 0 325.446 325.446">
    <g>
      <g>
        <path d="M263.585,0.005c0.294,3.138,0.484,6.304,0.484,9.513c0,7.468-0.87,14.734-2.41,21.745
			c5.483,2.23,11.873,3.535,18.721,3.535c0,0,36.627-11.172,36.627-24.96V9.192c0-3.247-2.078-6.342-5.189-9.192h-48.234V0.005z"></path>
        <path d="M184.469,108.455c-7.016,1.539-14.278,2.41-21.745,2.41c-7.468,0-14.734-0.87-21.745-2.41
			c-2.23,5.483-3.535,11.873-3.535,18.721c0,0,11.172,36.627,24.96,36.627h0.647c13.783,0,24.96-36.627,24.96-36.627
			C188.004,120.328,186.699,113.938,184.469,108.455z"></path>
        <path d="M112.064,97.163c-12.646-7.337-23.557-17.307-31.987-29.186
			c-5.379,2.545-10.688,6.331-15.338,11.422c0,0-16.431,34.587-6.249,43.877l0.479,0.435c10.182,9.29,43.121-10.236,43.121-10.236
			C106.739,108.384,110.019,102.749,112.064,97.163z"></path>
        <path d="M266.468,123.712l0.479-0.435c10.182-9.29-6.249-43.877-6.249-43.877
			c-4.645-5.091-9.959-8.871-15.338-11.422c-8.431,11.884-19.341,21.849-31.987,29.186c2.045,5.586,5.325,11.221,9.97,16.312
			C223.347,113.475,256.286,133.001,266.468,123.712z"></path>
        <path d="M63.787,31.264c-1.539-7.016-2.41-14.278-2.41-21.745c0-3.214,0.19-6.38,0.484-9.513H13.622
			C10.511,2.85,8.439,5.945,8.439,9.192v0.647c0,13.783,36.627,24.96,36.627,24.96C51.913,34.799,58.299,33.494,63.787,31.264z"></path>
        <path d="M162.718,98.327c4.95,0,9.769-0.506,14.495-1.284c12.303-2.023,23.758-6.527,33.809-13.059
			c8.175-5.314,15.398-11.928,21.414-19.559c9.078-11.509,15.322-25.313,17.807-40.407c0.778-4.727,1.284-9.546,1.284-14.495
			c0-3.214-0.19-6.385-0.528-9.513h-4.656H79.092h-4.656c-0.332,3.127-0.528,6.298-0.528,9.513c0,4.95,0.506,9.769,1.284,14.495
			c2.486,15.088,8.73,28.892,17.813,40.401c6.021,7.631,13.244,14.245,21.414,19.559c10.051,6.532,21.501,11.036,33.809,13.059
			C152.955,97.822,157.774,98.327,162.718,98.327z"></path>
        <path d="M77.983,153.817c-5.205-3.013-11.857-1.246-14.865,3.965l-34.331,59.275
			c-3.008,5.194-1.235,11.852,3.965,14.86c1.719,0.995,3.59,1.469,5.439,1.469c3.753,0,7.408-1.942,9.426-5.428l34.331-59.275
			C84.955,163.487,83.177,156.83,77.983,153.817z"></path>
        <path d="M269.9,157.782c-3.008-5.2-9.665-6.973-14.865-3.965c-5.2,3.013-6.973,9.665-3.96,14.86
			l34.331,59.275c2.018,3.486,5.668,5.428,9.42,5.428c1.849,0,3.726-0.473,5.439-1.469c5.2-3.013,6.973-9.665,3.96-14.86
			L269.9,157.782z"></path>
        <path d="M105.689,246.564c1.012,0.294,2.029,0.435,3.03,0.435c4.721,0,9.067-3.095,10.443-7.854
			l17.895-61.788c1.675-5.776-1.653-11.808-7.424-13.478c-5.765-1.67-11.803,1.653-13.473,7.419l-17.895,61.788
			C96.59,238.862,99.918,244.894,105.689,246.564z"></path>
        <path d="M215.83,239.884c1.675,4.302,5.782,6.929,10.138,6.929c1.316,0,2.654-0.245,3.954-0.751
			c5.597-2.181,8.365-8.496,6.179-14.087l-23.959-61.418c-2.181-5.602-8.496-8.36-14.087-6.184
			c-5.597,2.181-8.365,8.496-6.179,14.087L215.83,239.884z"></path>
        <path d="M154.336,259.373h-4.922c-4.498,0-8.159,4.09-8.159,9.116v28.919
			c0,13.483-14.528,16.312-26.722,16.312c-9.513,0-25.466-2.121-25.466-16.312v-28.919c0-5.026-3.66-9.116-8.159-9.116h-4.917
			c-4.498,0-8.159,4.09-8.159,9.116v28.74c0,18.194,16.393,28.218,46.161,28.218c31.275,0,48.5-10.144,48.5-28.561v-28.397
			C162.495,263.457,158.834,259.373,154.336,259.373z"></path>
        <path d="M268.502,259.373h-5.814c-3.911,0-8.692,2.633-11.112,6.124l-17.03,24.525
			c-4.449,6.44-8.028,11.797-11.03,17.003c-0.228,0.392-0.446,0.778-0.658,1.148l-0.62-1.186
			c-3.03-5.646-6.728-11.498-10.269-16.981l-15.577-24.269c-2.328-3.628-7.054-6.364-11.003-6.364h-5.999
			c-2.361,0-4.248,0.995-5.178,2.725c-1.001,1.871-0.707,4.253,0.81,6.543l32.814,49.561c2.366,3.573,7.114,6.266,11.047,6.266
			h6.353c3.889,0,8.692-2.578,11.172-5.994l36.202-49.92c1.615-2.23,2.002-4.585,1.044-6.451
			C272.772,260.368,270.895,259.373,268.502,259.373z"></path>
      </g>
    </g>
    <g></g>
    <g></g>
    <g></g>
    <g></g>
    <g></g>
    <g></g>
    <g></g>
    <g></g>
    <g></g>
    <g></g>
    <g></g>
    <g></g>
    <g></g>
    <g></g>
    <g></g>
  </symbol>
  <symbol xmlns="http://www.w3.org/2000/svg" viewBox="0 0 24 24" id="visible">
    <rect x="0" fill="none" width="24" height="24"></rect>
    <g>
      <path d="M12 6C5.188 6 1 12 1 12s4.188 6 11 6 11-6 11-6-4.188-6-11-6zm0 10c-3.943 0-6.926-2.484-8.38-4 1.04-1.085 2.863-2.657 5.255-3.47C8.335 9.214 8 10.064 8 11c0 2.21 1.79 4 4 4s4-1.79 4-4c0-.937-.335-1.787-.875-2.47 2.393.813 4.216 2.386 5.254 3.47-1.456 1.518-4.438 4-8.38 4z"></path>
    </g>
  </symbol>
  <symbol version="1.1" id="wind" xmlns="http://www.w3.org/2000/svg" xmlns:xlink="http://www.w3.org/1999/xlink" x="0px" y="0px" xml:space="preserve" viewBox="0 0 365.447 365.447">
    <g>
      <g>
        <path d="M306.069,189.427H7.5c-4.143,0-7.5-3.358-7.5-7.5s3.357-7.5,7.5-7.5h297.119c0.469-0.092,0.954-0.14,1.45-0.14
			c24.47,0,44.378-19.908,44.378-44.378S330.539,85.53,306.069,85.53s-44.378,19.908-44.378,44.378c0,4.142-3.357,7.5-7.5,7.5
			s-7.5-3.358-7.5-7.5c0-32.741,26.637-59.378,59.378-59.378s59.378,26.637,59.378,59.378c0,32.224-25.801,58.535-57.829,59.358
			C307.118,189.372,306.601,189.427,306.069,189.427z"></path>
      </g>
      <g>
        <path d="M152.283,137.479H7.5c-4.143,0-7.5-3.358-7.5-7.5s3.357-7.5,7.5-7.5h143.333c0.469-0.092,0.954-0.14,1.45-0.14
			c24.47,0,44.378-19.908,44.378-44.378s-19.908-44.378-44.378-44.378c-24.471,0-44.379,19.908-44.379,44.378
			c0,4.142-3.357,7.5-7.5,7.5s-7.5-3.358-7.5-7.5c0-32.741,26.638-59.378,59.379-59.378s59.378,26.637,59.378,59.378
			c0,32.224-25.801,58.535-57.829,59.358C153.332,137.423,152.814,137.479,152.283,137.479z"></path>
      </g>
      <g>
        <path d="M244.186,346.866c-32.741,0-59.379-26.637-59.379-59.378c0-4.142,3.357-7.5,7.5-7.5s7.5,3.358,7.5,7.5
			c0,24.47,19.908,44.378,44.379,44.378c24.47,0,44.378-19.908,44.378-44.378s-19.908-44.378-44.378-44.378H7.5
			c-4.143,0-7.5-3.358-7.5-7.5s3.357-7.5,7.5-7.5h236.686c32.741,0,59.378,26.637,59.378,59.378S276.927,346.866,244.186,346.866z"></path>
      </g>
    </g>
    <g></g>
    <g></g>
    <g></g>
    <g></g>
    <g></g>
    <g></g>
    <g></g>
    <g></g>
    <g></g>
    <g></g>
    <g></g>
    <g></g>
    <g></g>
    <g></g>
    <g></g>
  </symbol>
</svg>